<?xml version="1.0" encoding="UTF-8"?>
<svg width="200px" height="38px" viewBox="0 0 200 38" version="1.1" xmlns="http://www.w3.org/2000/svg" xmlns:xlink="http://www.w3.org/1999/xlink">
    <!-- Generator: Sketch 49.1 (51147) - http://www.bohemiancoding.com/sketch -->
    <title>Group</title>
    <desc>Created with Sketch.</desc>
    <defs>
        <linearGradient x1="47.7587674%" y1="24.6536517%" x2="75.2248354%" y2="96.7769809%" id="linearGradient-1">
            <stop stop-color="#88E766" offset="0%"></stop>
            <stop stop-color="#63DA90" offset="100%"></stop>
        </linearGradient>
        <linearGradient x1="92.6478599%" y1="15.2138511%" x2="16.9088543%" y2="80.7564423%" id="linearGradient-2">
            <stop stop-color="#63DA90" offset="0%"></stop>
            <stop stop-color="#3ACCBD" offset="100%"></stop>
        </linearGradient>
        <linearGradient x1="81.0832266%" y1="69.7403923%" x2="40.1142614%" y2="35.4914658%" id="linearGradient-3">
            <stop stop-color="#3ACCBD" offset="0%"></stop>
            <stop stop-color="#24C4D6" offset="100%"></stop>
        </linearGradient>
        <linearGradient x1="18.9250384%" y1="73.7798244%" x2="91.7168457%" y2="86.987322%" id="linearGradient-4">
            <stop stop-color="#24C4D6" offset="0%"></stop>
            <stop stop-color="#00B7FF" offset="100%"></stop>
        </linearGradient>
    </defs>
    <g id="Symbols" stroke="none" stroke-width="1" fill="none" fill-rule="evenodd">
        <g id="White" transform="translate(-25.000000, -19.000000)">
            <g id="Group" transform="translate(25.000000, 19.000000)">
                <g id="logotipo" transform="translate(54.910714, 7.050184)" fill="#00466E">
                    <path d="M131.582812,5.86570869 C130.75692,6.25214688 130.112277,6.7597601 129.647991,7.38942962 C129.184598,8.01909914 128.88058,8.63334639 128.735491,9.23481518 L139.213616,9.23481518 C138.865848,7.9472754 138.220759,6.96729988 137.278795,6.29488862 C136.33683,5.62291799 135.271652,5.28671236 134.083705,5.28671236 C133.24308,5.28671236 132.409598,5.47971114 131.582812,5.86570869 Z M145.083705,13.2261004 L128.560937,13.2261004 C128.706473,13.9412534 128.988616,14.6916573 129.409152,15.4790747 C129.829687,16.2656108 130.460045,16.9164308 131.300223,17.4310942 C132.140848,17.9466389 133.039955,18.20353 133.995759,18.20353 C135.416295,18.20353 136.539955,17.9536891 137.366295,17.4526854 C138.192187,16.952563 138.865848,16.25812 139.387723,15.3715594 L144.518527,16.4440685 C143.590402,18.6186095 142.206473,20.2639461 140.366295,21.3791971 C138.52567,22.4953293 136.402009,23.0527344 133.995759,23.0527344 C132.488616,23.0527344 131.053795,22.7808617 129.692187,22.2379976 C128.329687,21.6942521 127.140848,20.9147662 126.126562,19.8986585 C125.112277,18.8829914 124.315402,17.6743256 123.735045,16.272661 C123.155134,14.8705557 122.865848,13.3543256 122.865848,11.72353 C122.865848,10.0927344 123.155134,8.57694492 123.735045,7.17483966 C124.315402,5.77317503 125.11942,4.56406854 126.147991,3.54840147 C127.177455,2.53317503 128.38058,1.74619829 129.75692,1.18835251 C131.133705,0.630506732 132.57567,0.351143207 134.083705,0.351143207 C135.503348,0.351143207 136.873437,0.615965728 138.192187,1.14517013 C139.511384,1.67481518 140.677455,2.42521909 141.692187,3.39814443 C142.706473,4.37106977 143.511384,5.53655324 144.105134,6.89591677 C144.69933,8.25439902 145.025223,9.72127785 145.083705,11.2943501 L145.083705,13.2261004 Z" id="Fill-9"></path>
                    <polygon id="Fill-7" points="112.737768 22.4095814 106.650714 22.4095814 97.6069643 0.951906977 103.781518 0.951906977 109.694911 15.4999608 115.607411 0.951906977 121.781518 0.951906977"></polygon>
                    <path d="M84.81375,22.4095814 L78.9347321,22.4095814 L78.9347321,11.9581248 C78.9213393,11.254869 78.9726786,7.08160098 81.9958929,4.00111138 C83.3610714,2.61002203 85.8659821,0.951906977 90.0508036,0.951906977 L94.4244643,0.951906977 L94.4244643,6.53256793 L90.0508036,6.53256793 C88.32,6.53256793 87.0664286,6.95249449 86.2182143,7.81702326 C84.8249107,9.23631334 84.8115179,11.8078678 84.8119643,11.8316622 C84.8128571,11.8620661 84.81375,11.8929106 84.81375,11.9237552 L84.81375,22.4095814 Z" id="Fill-12"></path>
                    <path d="M61.5157589,5.86570869 C60.6898661,6.25214688 60.0452232,6.7597601 59.5809375,7.38942962 C59.1175446,8.01909914 58.8135268,8.63334639 58.6684375,9.23481518 L69.1465625,9.23481518 C68.7987946,7.9472754 68.1532589,6.96729988 67.2117411,6.29488862 C66.2697768,5.62291799 65.2045982,5.28671236 64.0157589,5.28671236 C63.1760268,5.28671236 62.3425446,5.47971114 61.5157589,5.86570869 Z M75.0166518,13.2261004 L58.4938839,13.2261004 C58.6394196,13.9412534 58.9215625,14.6916573 59.3420982,15.4790747 C59.7626339,16.2656108 60.3929911,16.9164308 61.2336161,17.4310942 C62.0737946,17.9466389 62.9729018,18.20353 63.9287054,18.20353 C65.3492411,18.20353 66.4729018,17.9536891 67.2992411,17.4526854 C68.1251339,16.952563 68.7987946,16.25812 69.3206696,15.3715594 L74.4514732,16.4440685 C73.5233482,18.6186095 72.1394196,20.2639461 70.2992411,21.3791971 C68.4586161,22.4953293 66.3349554,23.0527344 63.9287054,23.0527344 C62.4215625,23.0527344 60.9867411,22.7808617 59.6251339,22.2379976 C58.2626339,21.6942521 57.0737946,20.9147662 56.0595089,19.8986585 C55.0452232,18.8829914 54.2483482,17.6743256 53.6679911,16.272661 C53.0880804,14.8705557 52.7983482,13.3543256 52.7983482,11.72353 C52.7983482,10.0927344 53.0880804,8.57694492 53.6679911,7.17483966 C54.2483482,5.77317503 55.0519196,4.56406854 56.0809375,3.54840147 C57.1104018,2.53317503 58.3135268,1.74619829 59.6898661,1.18835251 C61.0666518,0.630506732 62.5086161,0.351143207 64.0157589,0.351143207 C65.4358482,0.351143207 66.8063839,0.615965728 68.1251339,1.14517013 C69.4443304,1.67481518 70.6104018,2.42521909 71.6251339,3.39814443 C72.6394196,4.37106977 73.4443304,5.53655324 74.0380804,6.89591677 C74.6322768,8.25439902 74.9581696,9.72127785 75.0166518,11.2943501 L75.0166518,13.2261004 Z" id="Fill-5"></path>
                    <polygon id="Fill-4" points="51.0617411 22.4095814 44.2354018 22.4095814 39.4965625 15.6290673 34.8005804 22.4095814 27.9737946 22.4095814 35.2787054 11.9810379 27.9737946 0.951906977 34.8005804 0.951906977 39.4965625 8.16204162 44.2354018 0.951906977 51.0617411 0.951906977 43.7568304 11.9810379"></polygon>
                    <path d="M11.7594643,18.1533856 C8.37375,18.1533856 5.62910714,15.2650135 5.62910714,11.7020269 C5.62910714,8.13904039 8.37375,5.2506683 11.7594643,5.2506683 C13.9567857,5.2506683 15.8786607,6.4707907 16.9603571,8.2985508 L16.9603571,14.2273146 C16.9603571,14.4996279 16.976875,14.7679755 17.001875,15.0336793 C15.9282143,16.9010967 13.9849107,18.1533856 11.7594643,18.1533856 M22.8371429,14.2273146 L22.8371429,0.995001224 L16.9603571,0.995001224 L16.9603571,2.06839168 C15.2657143,0.986629131 13.2719643,0.351231334 11.1291071,0.351231334 C5.0175,0.351231334 0.0639285714,5.4330918 0.0639285714,11.7020269 C0.0639285714,17.9709621 5.0175,23.0528225 11.1291071,23.0528225 C14.2058929,23.0528225 16.9880357,21.7626389 18.9933929,19.6832754 C20.5666071,21.5154419 22.9103571,22.6831285 25.5282143,22.6831285 L25.5282143,16.8830306 C24.0447321,16.8830306 22.8371429,15.6911089 22.8371429,14.2273146" id="Fill-14"></path>
                </g>
                <g id="marchio">
                    <path d="M0,5.26909091 L5.20900079,10.2996172 C5.6323234,9.87645933 6.3580193,9.3508134 6.72992384,9.10995215 C8.82783942,7.74287081 11.2772092,7.07827751 13.817437,7.18909091 C19.7795956,7.4477512 24.7411469,12.2313876 25.1130515,18.0786603 L32.4024389,17.6311005 C32.1094144,13.0237321 30.0778164,8.68334928 26.6818868,5.40947368 C23.2874179,2.13732057 18.8330357,0.22277512 14.1396763,0.0192344498 C13.8478204,0.00631578947 13.5565487,0 13.2661535,0 C9.48312763,0.00028708134 5.84763655,1.07311005 2.71376379,3.1154067 C2.55337447,3.2184689 1.11454504,4.15406699 0,5.26909091 Z" id="Fill-1" fill="url(#linearGradient-1)"></path>
                    <path d="M25.1130515,18.0786603 C25.3204766,21.3419139 24.1872341,24.4438278 21.9222098,26.812823 C19.6554326,29.1841148 16.5840796,30.4903349 13.2746258,30.4903349 L13.2746258,37.6673684 C18.5438091,37.6673684 23.6365349,35.502201 27.2454405,31.7270813 C30.905472,27.8988517 32.7369485,22.8927273 32.4024389,17.6311005 L25.1130515,18.0786603 Z" id="Fill-7" fill="url(#linearGradient-2)"></path>
                    <path d="M13.0999212,37.6673684 L13.3321283,37.6673684 L13.3321283,30.4903349 L13.0999212,30.4903349 C10.6689568,30.4903349 8.54182642,28.8100478 8.15210084,26.5822967 C7.87105436,24.977799 8.55643382,23.7272727 8.99027377,23.124689 L3.02694656,18.9809569 C1.1507714,21.5876555 0.414850315,24.7191388 0.953571429,27.7989474 C1.95505515,33.5170335 7.06326484,37.6673684 13.0999212,37.6673684 Z" id="Fill-10" fill="url(#linearGradient-3)"></path>
                    <path d="M8.94353007,23.1878469 C11.1749573,20.2257416 14.6021468,18.5267943 18.346317,18.5267943 C18.7436384,18.5267943 19.1435892,18.5463158 19.5163701,18.5830622 C25.1592109,19.1695694 30.3854484,21.6964593 34.2321626,25.6980861 L39.5413701,20.7700478 C34.4986016,15.5236364 27.6594144,12.2124402 20.26573,11.4439234 C19.6323529,11.3816268 18.9867056,11.3497608 18.346317,11.3497608 C12.3526064,11.3497608 6.59670431,14.2421053 3.02694656,18.9809569 L8.94353007,23.1878469 Z" id="Fill-13" fill="url(#linearGradient-4)"></path>
                </g>
            </g>
        </g>
    </g>
</svg>